# xmcd CD database file
#
# Track frame offsets:
#	150
#	22817
#	47835
#	70110
#	94370
#	110172
#	134602
#	160167
#	179525
#	207375
#
# Disc length: 2962 seconds
#
# Revision: 0
# Processed by: cddbd v1.5.1PL0 Copyright (c) Steve Scherf et al.
# Submitted via: CDex 1.51
#
DISCID=910b900a
DTITLE=二村　敦志 - AOR
DYEAR=2004
DGENRE=Soul
TTITLE0=Fragile
TTITLE1=LUZ
TTITLE2=虹
TTITLE3=散歩へでかけよう
TTITLE4=Summer　Breeze
TTITLE5=Promised　Land
TTITLE6=Christmas　Serenade 〜If〜
TTITLE7=星に願いを
TTITLE8=祈り
TTITLE9=Kiss
EXTD=YEAR: 2004
EXTT0=
EXTT1=
EXTT2=
EXTT3=
EXTT4=
EXTT5=
EXTT6=
EXTT7=
EXTT8=
EXTT9=
PLAYORDER=
